<mxfile host="app.diagrams.net" modified="2024-07-10T09:10:48.515Z" agent="Mozilla/5.0 (Windows NT 10.0; Win64; x64) AppleWebKit/537.36 (KHTML, like Gecko) Chrome/126.0.0.0 Safari/537.36" etag="5aabYACrRCPCGXIofiiE" version="24.6.4" type="device">
  <diagram name="Page-1" id="eMELVBIxelOOI0SicaBg">
    <mxGraphModel dx="4100" dy="1591" grid="0" gridSize="10" guides="1" tooltips="1" connect="1" arrows="1" fold="1" page="1" pageScale="1" pageWidth="1100" pageHeight="850" background="#ffffff" math="0" shadow="0">
      <root>
        <mxCell id="0" />
        <mxCell id="1" parent="0" />
        <mxCell id="-T0-8DbuxKeXqczAtrkJ-98" style="edgeStyle=orthogonalEdgeStyle;rounded=0;orthogonalLoop=1;jettySize=auto;html=1;exitX=0.5;exitY=1;exitDx=0;exitDy=0;entryX=0.5;entryY=0;entryDx=0;entryDy=0;" edge="1" parent="1" source="-T0-8DbuxKeXqczAtrkJ-1" target="-T0-8DbuxKeXqczAtrkJ-97">
          <mxGeometry relative="1" as="geometry" />
        </mxCell>
        <mxCell id="-T0-8DbuxKeXqczAtrkJ-110" style="edgeStyle=orthogonalEdgeStyle;rounded=0;orthogonalLoop=1;jettySize=auto;html=1;entryX=0;entryY=0.5;entryDx=0;entryDy=0;" edge="1" parent="1" source="-T0-8DbuxKeXqczAtrkJ-1" target="-T0-8DbuxKeXqczAtrkJ-109">
          <mxGeometry relative="1" as="geometry" />
        </mxCell>
        <mxCell id="-T0-8DbuxKeXqczAtrkJ-115" style="edgeStyle=orthogonalEdgeStyle;rounded=0;orthogonalLoop=1;jettySize=auto;html=1;exitX=1;exitY=1;exitDx=0;exitDy=0;entryX=0;entryY=0.5;entryDx=0;entryDy=0;" edge="1" parent="1" source="-T0-8DbuxKeXqczAtrkJ-1" target="-T0-8DbuxKeXqczAtrkJ-114">
          <mxGeometry relative="1" as="geometry" />
        </mxCell>
        <mxCell id="-T0-8DbuxKeXqczAtrkJ-1" value="&lt;font style=&quot;font-size: 24px;&quot;&gt;Customers&lt;/font&gt;" style="rounded=0;whiteSpace=wrap;html=1;" vertex="1" parent="1">
          <mxGeometry x="-470" y="180" width="120" height="50" as="geometry" />
        </mxCell>
        <mxCell id="-T0-8DbuxKeXqczAtrkJ-2" value="&lt;u&gt;&lt;strong&gt;CustomerID&lt;/strong&gt;&amp;nbsp;&lt;/u&gt;" style="ellipse;whiteSpace=wrap;html=1;" vertex="1" parent="1">
          <mxGeometry x="-520" y="80" width="100" height="60" as="geometry" />
        </mxCell>
        <mxCell id="-T0-8DbuxKeXqczAtrkJ-3" value="Email" style="ellipse;whiteSpace=wrap;html=1;" vertex="1" parent="1">
          <mxGeometry x="-215" y="20" width="100" height="60" as="geometry" />
        </mxCell>
        <mxCell id="-T0-8DbuxKeXqczAtrkJ-4" value="Category" style="ellipse;whiteSpace=wrap;html=1;" vertex="1" parent="1">
          <mxGeometry x="-660" y="130" width="100" height="60" as="geometry" />
        </mxCell>
        <mxCell id="-T0-8DbuxKeXqczAtrkJ-5" value="" style="endArrow=none;html=1;rounded=0;entryX=0.5;entryY=0;entryDx=0;entryDy=0;exitX=0.5;exitY=1;exitDx=0;exitDy=0;" edge="1" parent="1" source="-T0-8DbuxKeXqczAtrkJ-2" target="-T0-8DbuxKeXqczAtrkJ-1">
          <mxGeometry width="50" height="50" relative="1" as="geometry">
            <mxPoint x="-430" y="260" as="sourcePoint" />
            <mxPoint x="-380" y="210" as="targetPoint" />
          </mxGeometry>
        </mxCell>
        <mxCell id="-T0-8DbuxKeXqczAtrkJ-6" value="" style="endArrow=none;html=1;rounded=0;entryX=1;entryY=0;entryDx=0;entryDy=0;exitX=0;exitY=0.5;exitDx=0;exitDy=0;" edge="1" parent="1" source="-T0-8DbuxKeXqczAtrkJ-3" target="-T0-8DbuxKeXqczAtrkJ-1">
          <mxGeometry width="50" height="50" relative="1" as="geometry">
            <mxPoint x="-430" y="260" as="sourcePoint" />
            <mxPoint x="-380" y="210" as="targetPoint" />
          </mxGeometry>
        </mxCell>
        <mxCell id="-T0-8DbuxKeXqczAtrkJ-7" value="" style="endArrow=none;html=1;rounded=0;exitX=0;exitY=0.5;exitDx=0;exitDy=0;entryX=1;entryY=0.5;entryDx=0;entryDy=0;" edge="1" parent="1" source="-T0-8DbuxKeXqczAtrkJ-1" target="-T0-8DbuxKeXqczAtrkJ-4">
          <mxGeometry width="50" height="50" relative="1" as="geometry">
            <mxPoint x="-430" y="260" as="sourcePoint" />
            <mxPoint x="-380" y="210" as="targetPoint" />
          </mxGeometry>
        </mxCell>
        <mxCell id="-T0-8DbuxKeXqczAtrkJ-15" value="&lt;font style=&quot;font-size: 24px;&quot;&gt;Stores&lt;/font&gt;" style="rounded=0;whiteSpace=wrap;html=1;" vertex="1" parent="1">
          <mxGeometry x="348" y="1330" width="130" height="50" as="geometry" />
        </mxCell>
        <mxCell id="-T0-8DbuxKeXqczAtrkJ-16" value="&lt;u&gt;ItemID&lt;/u&gt;" style="ellipse;whiteSpace=wrap;html=1;" vertex="1" parent="1">
          <mxGeometry x="255" y="1220" width="100" height="60" as="geometry" />
        </mxCell>
        <mxCell id="-T0-8DbuxKeXqczAtrkJ-17" value="ResponsiblePerson" style="ellipse;whiteSpace=wrap;html=1;" vertex="1" parent="1">
          <mxGeometry x="498" y="1410" width="120" height="70" as="geometry" />
        </mxCell>
        <mxCell id="-T0-8DbuxKeXqczAtrkJ-18" value="ItemPrice" style="ellipse;whiteSpace=wrap;html=1;" vertex="1" parent="1">
          <mxGeometry x="208" y="1410" width="100" height="60" as="geometry" />
        </mxCell>
        <mxCell id="-T0-8DbuxKeXqczAtrkJ-19" value="" style="endArrow=none;html=1;rounded=0;entryX=0.25;entryY=0;entryDx=0;entryDy=0;exitX=0.5;exitY=1;exitDx=0;exitDy=0;" edge="1" parent="1" source="-T0-8DbuxKeXqczAtrkJ-16" target="-T0-8DbuxKeXqczAtrkJ-15">
          <mxGeometry width="50" height="50" relative="1" as="geometry">
            <mxPoint x="388" y="1380" as="sourcePoint" />
            <mxPoint x="438" y="1330" as="targetPoint" />
          </mxGeometry>
        </mxCell>
        <mxCell id="-T0-8DbuxKeXqczAtrkJ-20" value="" style="endArrow=none;html=1;rounded=0;entryX=1;entryY=0.5;entryDx=0;entryDy=0;exitX=0;exitY=0.5;exitDx=0;exitDy=0;" edge="1" parent="1" source="-T0-8DbuxKeXqczAtrkJ-17" target="-T0-8DbuxKeXqczAtrkJ-15">
          <mxGeometry width="50" height="50" relative="1" as="geometry">
            <mxPoint x="388" y="1380" as="sourcePoint" />
            <mxPoint x="438" y="1330" as="targetPoint" />
          </mxGeometry>
        </mxCell>
        <mxCell id="-T0-8DbuxKeXqczAtrkJ-21" value="" style="endArrow=none;html=1;rounded=0;exitX=0;exitY=0.5;exitDx=0;exitDy=0;entryX=1;entryY=0.5;entryDx=0;entryDy=0;" edge="1" parent="1" source="-T0-8DbuxKeXqczAtrkJ-15" target="-T0-8DbuxKeXqczAtrkJ-18">
          <mxGeometry width="50" height="50" relative="1" as="geometry">
            <mxPoint x="388" y="1380" as="sourcePoint" />
            <mxPoint x="438" y="1330" as="targetPoint" />
          </mxGeometry>
        </mxCell>
        <mxCell id="-T0-8DbuxKeXqczAtrkJ-23" value="Name" style="ellipse;whiteSpace=wrap;html=1;" vertex="1" parent="1">
          <mxGeometry x="-395" y="20" width="100" height="60" as="geometry" />
        </mxCell>
        <mxCell id="-T0-8DbuxKeXqczAtrkJ-25" value="" style="endArrow=none;html=1;rounded=0;entryX=0.5;entryY=1;entryDx=0;entryDy=0;exitX=0.75;exitY=0;exitDx=0;exitDy=0;" edge="1" parent="1" source="-T0-8DbuxKeXqczAtrkJ-1" target="-T0-8DbuxKeXqczAtrkJ-23">
          <mxGeometry width="50" height="50" relative="1" as="geometry">
            <mxPoint x="-110" y="260" as="sourcePoint" />
            <mxPoint x="-60" y="210" as="targetPoint" />
          </mxGeometry>
        </mxCell>
        <mxCell id="-T0-8DbuxKeXqczAtrkJ-26" value="" style="endArrow=none;html=1;rounded=0;entryX=0.25;entryY=1;entryDx=0;entryDy=0;exitX=0.5;exitY=0;exitDx=0;exitDy=0;" edge="1" parent="1" source="-T0-8DbuxKeXqczAtrkJ-95" target="-T0-8DbuxKeXqczAtrkJ-1">
          <mxGeometry width="50" height="50" relative="1" as="geometry">
            <mxPoint x="-495" y="310" as="sourcePoint" />
            <mxPoint x="-60" y="210" as="targetPoint" />
          </mxGeometry>
        </mxCell>
        <mxCell id="-T0-8DbuxKeXqczAtrkJ-120" style="edgeStyle=orthogonalEdgeStyle;rounded=0;orthogonalLoop=1;jettySize=auto;html=1;exitX=0.5;exitY=1;exitDx=0;exitDy=0;entryX=0.5;entryY=0;entryDx=0;entryDy=0;" edge="1" parent="1" source="-T0-8DbuxKeXqczAtrkJ-27" target="-T0-8DbuxKeXqczAtrkJ-119">
          <mxGeometry relative="1" as="geometry" />
        </mxCell>
        <mxCell id="-T0-8DbuxKeXqczAtrkJ-27" value="&lt;font style=&quot;font-size: 24px;&quot;&gt;Installations&lt;/font&gt;" style="rounded=0;whiteSpace=wrap;html=1;" vertex="1" parent="1">
          <mxGeometry x="420" y="430" width="140" height="60" as="geometry" />
        </mxCell>
        <mxCell id="-T0-8DbuxKeXqczAtrkJ-28" value="&lt;strong&gt;&lt;u&gt;InstallationID&lt;/u&gt;&lt;/strong&gt;" style="ellipse;whiteSpace=wrap;html=1;" vertex="1" parent="1">
          <mxGeometry x="440" y="230" width="100" height="60" as="geometry" />
        </mxCell>
        <mxCell id="-T0-8DbuxKeXqczAtrkJ-29" value="PlaceAddress" style="ellipse;whiteSpace=wrap;html=1;" vertex="1" parent="1">
          <mxGeometry x="690" y="360" width="100" height="60" as="geometry" />
        </mxCell>
        <mxCell id="-T0-8DbuxKeXqczAtrkJ-30" value="CustomerID(FK)" style="ellipse;whiteSpace=wrap;html=1;" vertex="1" parent="1">
          <mxGeometry x="560" y="600" width="100" height="60" as="geometry" />
        </mxCell>
        <mxCell id="-T0-8DbuxKeXqczAtrkJ-31" value="" style="endArrow=none;html=1;rounded=0;entryX=0.5;entryY=0;entryDx=0;entryDy=0;exitX=0.5;exitY=1;exitDx=0;exitDy=0;" edge="1" parent="1" source="-T0-8DbuxKeXqczAtrkJ-28" target="-T0-8DbuxKeXqczAtrkJ-27">
          <mxGeometry width="50" height="50" relative="1" as="geometry">
            <mxPoint x="480" y="490" as="sourcePoint" />
            <mxPoint x="530" y="440" as="targetPoint" />
          </mxGeometry>
        </mxCell>
        <mxCell id="-T0-8DbuxKeXqczAtrkJ-32" value="" style="endArrow=none;html=1;rounded=0;entryX=1;entryY=0.5;entryDx=0;entryDy=0;exitX=0;exitY=0.5;exitDx=0;exitDy=0;" edge="1" parent="1" source="-T0-8DbuxKeXqczAtrkJ-29" target="-T0-8DbuxKeXqczAtrkJ-27">
          <mxGeometry width="50" height="50" relative="1" as="geometry">
            <mxPoint x="480" y="490" as="sourcePoint" />
            <mxPoint x="530" y="440" as="targetPoint" />
          </mxGeometry>
        </mxCell>
        <mxCell id="-T0-8DbuxKeXqczAtrkJ-33" value="" style="endArrow=none;html=1;rounded=0;exitX=0.75;exitY=1;exitDx=0;exitDy=0;entryX=0.5;entryY=0;entryDx=0;entryDy=0;" edge="1" parent="1" source="-T0-8DbuxKeXqczAtrkJ-27" target="-T0-8DbuxKeXqczAtrkJ-30">
          <mxGeometry width="50" height="50" relative="1" as="geometry">
            <mxPoint x="480" y="490" as="sourcePoint" />
            <mxPoint x="530" y="440" as="targetPoint" />
          </mxGeometry>
        </mxCell>
        <mxCell id="-T0-8DbuxKeXqczAtrkJ-34" value="NameOfPlace" style="ellipse;whiteSpace=wrap;html=1;" vertex="1" parent="1">
          <mxGeometry x="580" y="230" width="100" height="60" as="geometry" />
        </mxCell>
        <mxCell id="-T0-8DbuxKeXqczAtrkJ-35" value="Type" style="ellipse;whiteSpace=wrap;html=1;" vertex="1" parent="1">
          <mxGeometry x="670" y="530" width="110" height="60" as="geometry" />
        </mxCell>
        <mxCell id="-T0-8DbuxKeXqczAtrkJ-36" value="" style="endArrow=none;html=1;rounded=0;entryX=0.5;entryY=1;entryDx=0;entryDy=0;exitX=0.75;exitY=0;exitDx=0;exitDy=0;" edge="1" parent="1" source="-T0-8DbuxKeXqczAtrkJ-27" target="-T0-8DbuxKeXqczAtrkJ-34">
          <mxGeometry width="50" height="50" relative="1" as="geometry">
            <mxPoint x="800" y="490" as="sourcePoint" />
            <mxPoint x="850" y="440" as="targetPoint" />
          </mxGeometry>
        </mxCell>
        <mxCell id="-T0-8DbuxKeXqczAtrkJ-37" value="" style="endArrow=none;html=1;rounded=0;entryX=1;entryY=0.75;entryDx=0;entryDy=0;exitX=0.5;exitY=0;exitDx=0;exitDy=0;" edge="1" parent="1" source="-T0-8DbuxKeXqczAtrkJ-35" target="-T0-8DbuxKeXqczAtrkJ-27">
          <mxGeometry width="50" height="50" relative="1" as="geometry">
            <mxPoint x="800" y="490" as="sourcePoint" />
            <mxPoint x="850" y="440" as="targetPoint" />
          </mxGeometry>
        </mxCell>
        <mxCell id="-T0-8DbuxKeXqczAtrkJ-127" style="edgeStyle=orthogonalEdgeStyle;rounded=0;orthogonalLoop=1;jettySize=auto;html=1;exitX=0.5;exitY=1;exitDx=0;exitDy=0;" edge="1" parent="1" source="-T0-8DbuxKeXqczAtrkJ-38">
          <mxGeometry relative="1" as="geometry">
            <mxPoint x="450" y="1040.0000000000005" as="targetPoint" />
          </mxGeometry>
        </mxCell>
        <mxCell id="-T0-8DbuxKeXqczAtrkJ-38" value="&lt;font style=&quot;font-size: 24px;&quot;&gt;Workers&lt;/font&gt;" style="rounded=0;whiteSpace=wrap;html=1;" vertex="1" parent="1">
          <mxGeometry x="408" y="840" width="122" height="50" as="geometry" />
        </mxCell>
        <mxCell id="-T0-8DbuxKeXqczAtrkJ-39" value="&lt;u&gt;WorkerID&lt;/u&gt;" style="ellipse;whiteSpace=wrap;html=1;" vertex="1" parent="1">
          <mxGeometry x="273" y="650" width="102" height="60" as="geometry" />
        </mxCell>
        <mxCell id="-T0-8DbuxKeXqczAtrkJ-40" value="Category" style="ellipse;whiteSpace=wrap;html=1;" vertex="1" parent="1">
          <mxGeometry x="656" y="820" width="102" height="60" as="geometry" />
        </mxCell>
        <mxCell id="-T0-8DbuxKeXqczAtrkJ-41" value="WorkPlaceNumber" style="ellipse;whiteSpace=wrap;html=1;" vertex="1" parent="1">
          <mxGeometry x="208" y="790" width="102" height="60" as="geometry" />
        </mxCell>
        <mxCell id="-T0-8DbuxKeXqczAtrkJ-42" value="" style="endArrow=none;html=1;rounded=0;entryX=0.25;entryY=0;entryDx=0;entryDy=0;exitX=0.5;exitY=1;exitDx=0;exitDy=0;" edge="1" parent="1" source="-T0-8DbuxKeXqczAtrkJ-39" target="-T0-8DbuxKeXqczAtrkJ-38">
          <mxGeometry width="50" height="50" relative="1" as="geometry">
            <mxPoint x="448" y="890" as="sourcePoint" />
            <mxPoint x="498" y="840" as="targetPoint" />
          </mxGeometry>
        </mxCell>
        <mxCell id="-T0-8DbuxKeXqczAtrkJ-43" value="" style="endArrow=none;html=1;rounded=0;entryX=1;entryY=0.5;entryDx=0;entryDy=0;exitX=0;exitY=0.5;exitDx=0;exitDy=0;" edge="1" parent="1" source="-T0-8DbuxKeXqczAtrkJ-40" target="-T0-8DbuxKeXqczAtrkJ-38">
          <mxGeometry width="50" height="50" relative="1" as="geometry">
            <mxPoint x="448" y="890" as="sourcePoint" />
            <mxPoint x="498" y="840" as="targetPoint" />
          </mxGeometry>
        </mxCell>
        <mxCell id="-T0-8DbuxKeXqczAtrkJ-44" value="" style="endArrow=none;html=1;rounded=0;exitX=0;exitY=0.5;exitDx=0;exitDy=0;entryX=1;entryY=0.5;entryDx=0;entryDy=0;" edge="1" parent="1" source="-T0-8DbuxKeXqczAtrkJ-38" target="-T0-8DbuxKeXqczAtrkJ-41">
          <mxGeometry width="50" height="50" relative="1" as="geometry">
            <mxPoint x="448" y="890" as="sourcePoint" />
            <mxPoint x="498" y="840" as="targetPoint" />
          </mxGeometry>
        </mxCell>
        <mxCell id="-T0-8DbuxKeXqczAtrkJ-45" value="Name" style="ellipse;whiteSpace=wrap;html=1;" vertex="1" parent="1">
          <mxGeometry x="628" y="710" width="102" height="60" as="geometry" />
        </mxCell>
        <mxCell id="-T0-8DbuxKeXqczAtrkJ-46" value="ItemNumber(FK)" style="ellipse;whiteSpace=wrap;html=1;" vertex="1" parent="1">
          <mxGeometry x="243" y="970" width="112" height="60" as="geometry" />
        </mxCell>
        <mxCell id="-T0-8DbuxKeXqczAtrkJ-47" value="" style="endArrow=none;html=1;rounded=0;entryX=0;entryY=1;entryDx=0;entryDy=0;exitX=0.75;exitY=0;exitDx=0;exitDy=0;" edge="1" parent="1" source="-T0-8DbuxKeXqczAtrkJ-38" target="-T0-8DbuxKeXqczAtrkJ-45">
          <mxGeometry width="50" height="50" relative="1" as="geometry">
            <mxPoint x="768" y="890" as="sourcePoint" />
            <mxPoint x="818" y="840" as="targetPoint" />
          </mxGeometry>
        </mxCell>
        <mxCell id="-T0-8DbuxKeXqczAtrkJ-48" value="" style="endArrow=none;html=1;rounded=0;entryX=0.25;entryY=1;entryDx=0;entryDy=0;exitX=0.5;exitY=0;exitDx=0;exitDy=0;" edge="1" parent="1" source="-T0-8DbuxKeXqczAtrkJ-46" target="-T0-8DbuxKeXqczAtrkJ-38">
          <mxGeometry width="50" height="50" relative="1" as="geometry">
            <mxPoint x="768" y="890" as="sourcePoint" />
            <mxPoint x="818" y="840" as="targetPoint" />
          </mxGeometry>
        </mxCell>
        <mxCell id="-T0-8DbuxKeXqczAtrkJ-49" value="WorkNumber(FK)" style="ellipse;whiteSpace=wrap;html=1;" vertex="1" parent="1">
          <mxGeometry x="208" y="880" width="102" height="60" as="geometry" />
        </mxCell>
        <mxCell id="-T0-8DbuxKeXqczAtrkJ-51" value="Email" style="ellipse;whiteSpace=wrap;html=1;" vertex="1" parent="1">
          <mxGeometry x="678" y="900" width="102" height="60" as="geometry" />
        </mxCell>
        <mxCell id="-T0-8DbuxKeXqczAtrkJ-52" value="TelephoneNumber" style="ellipse;whiteSpace=wrap;html=1;" vertex="1" parent="1">
          <mxGeometry x="618" y="1000" width="102" height="60" as="geometry" />
        </mxCell>
        <mxCell id="-T0-8DbuxKeXqczAtrkJ-53" value="" style="endArrow=none;html=1;rounded=0;exitX=1;exitY=1;exitDx=0;exitDy=0;entryX=0;entryY=0;entryDx=0;entryDy=0;" edge="1" parent="1" source="-T0-8DbuxKeXqczAtrkJ-38" target="-T0-8DbuxKeXqczAtrkJ-51">
          <mxGeometry width="50" height="50" relative="1" as="geometry">
            <mxPoint x="578" y="910" as="sourcePoint" />
            <mxPoint x="628" y="860" as="targetPoint" />
          </mxGeometry>
        </mxCell>
        <mxCell id="-T0-8DbuxKeXqczAtrkJ-54" value="" style="endArrow=none;html=1;rounded=0;exitX=0.75;exitY=1;exitDx=0;exitDy=0;entryX=0.5;entryY=0;entryDx=0;entryDy=0;" edge="1" parent="1" source="-T0-8DbuxKeXqczAtrkJ-38" target="-T0-8DbuxKeXqczAtrkJ-52">
          <mxGeometry width="50" height="50" relative="1" as="geometry">
            <mxPoint x="578" y="910" as="sourcePoint" />
            <mxPoint x="628" y="860" as="targetPoint" />
          </mxGeometry>
        </mxCell>
        <mxCell id="-T0-8DbuxKeXqczAtrkJ-57" value="" style="endArrow=none;html=1;rounded=0;exitX=0;exitY=1;exitDx=0;exitDy=0;entryX=1;entryY=0.5;entryDx=0;entryDy=0;" edge="1" parent="1" source="-T0-8DbuxKeXqczAtrkJ-38" target="-T0-8DbuxKeXqczAtrkJ-49">
          <mxGeometry width="50" height="50" relative="1" as="geometry">
            <mxPoint x="578" y="910" as="sourcePoint" />
            <mxPoint x="628" y="860" as="targetPoint" />
          </mxGeometry>
        </mxCell>
        <mxCell id="-T0-8DbuxKeXqczAtrkJ-59" value="LastName" style="ellipse;whiteSpace=wrap;html=1;" vertex="1" parent="1">
          <mxGeometry x="738" y="680" width="102" height="60" as="geometry" />
        </mxCell>
        <mxCell id="-T0-8DbuxKeXqczAtrkJ-60" value="FirstName" style="ellipse;whiteSpace=wrap;html=1;" vertex="1" parent="1">
          <mxGeometry x="748" y="580" width="102" height="60" as="geometry" />
        </mxCell>
        <mxCell id="-T0-8DbuxKeXqczAtrkJ-61" value="" style="endArrow=none;html=1;rounded=0;entryX=0;entryY=1;entryDx=0;entryDy=0;exitX=0.5;exitY=0;exitDx=0;exitDy=0;" edge="1" parent="1" source="-T0-8DbuxKeXqczAtrkJ-45" target="-T0-8DbuxKeXqczAtrkJ-60">
          <mxGeometry width="50" height="50" relative="1" as="geometry">
            <mxPoint x="228" y="920" as="sourcePoint" />
            <mxPoint x="278" y="870" as="targetPoint" />
          </mxGeometry>
        </mxCell>
        <mxCell id="-T0-8DbuxKeXqczAtrkJ-62" value="" style="endArrow=none;html=1;rounded=0;entryX=0;entryY=0.5;entryDx=0;entryDy=0;exitX=1;exitY=0;exitDx=0;exitDy=0;" edge="1" parent="1" source="-T0-8DbuxKeXqczAtrkJ-45" target="-T0-8DbuxKeXqczAtrkJ-59">
          <mxGeometry width="50" height="50" relative="1" as="geometry">
            <mxPoint x="228" y="920" as="sourcePoint" />
            <mxPoint x="278" y="870" as="targetPoint" />
          </mxGeometry>
        </mxCell>
        <mxCell id="-T0-8DbuxKeXqczAtrkJ-63" value="IssuedDate" style="ellipse;whiteSpace=wrap;html=1;" vertex="1" parent="1">
          <mxGeometry x="498" y="1220" width="100" height="60" as="geometry" />
        </mxCell>
        <mxCell id="-T0-8DbuxKeXqczAtrkJ-64" value="" style="endArrow=none;html=1;rounded=0;entryX=0;entryY=1;entryDx=0;entryDy=0;exitX=0.75;exitY=0;exitDx=0;exitDy=0;" edge="1" parent="1" source="-T0-8DbuxKeXqczAtrkJ-15" target="-T0-8DbuxKeXqczAtrkJ-63">
          <mxGeometry width="50" height="50" relative="1" as="geometry">
            <mxPoint x="398" y="1520" as="sourcePoint" />
            <mxPoint x="448" y="1470" as="targetPoint" />
          </mxGeometry>
        </mxCell>
        <mxCell id="-T0-8DbuxKeXqczAtrkJ-129" style="edgeStyle=orthogonalEdgeStyle;rounded=0;orthogonalLoop=1;jettySize=auto;html=1;exitX=1;exitY=0.5;exitDx=0;exitDy=0;entryX=0;entryY=0.5;entryDx=0;entryDy=0;" edge="1" parent="1" source="-T0-8DbuxKeXqczAtrkJ-65" target="-T0-8DbuxKeXqczAtrkJ-126">
          <mxGeometry relative="1" as="geometry" />
        </mxCell>
        <mxCell id="-T0-8DbuxKeXqczAtrkJ-65" value="&lt;font style=&quot;font-size: 24px;&quot;&gt;Supplier&lt;/font&gt;" style="rounded=0;whiteSpace=wrap;html=1;" vertex="1" parent="1">
          <mxGeometry x="-515" y="1320" width="120" height="50" as="geometry" />
        </mxCell>
        <mxCell id="-T0-8DbuxKeXqczAtrkJ-66" value="&lt;u&gt;ItemNumber&lt;/u&gt;" style="ellipse;whiteSpace=wrap;html=1;" vertex="1" parent="1">
          <mxGeometry x="-660" y="1150" width="100" height="60" as="geometry" />
        </mxCell>
        <mxCell id="-T0-8DbuxKeXqczAtrkJ-67" value="PricePerUnit" style="ellipse;whiteSpace=wrap;html=1;" vertex="1" parent="1">
          <mxGeometry x="-355" y="1470" width="100" height="60" as="geometry" />
        </mxCell>
        <mxCell id="-T0-8DbuxKeXqczAtrkJ-68" value="StoreID (FK)" style="ellipse;whiteSpace=wrap;html=1;" vertex="1" parent="1">
          <mxGeometry x="-665" y="1310" width="100" height="60" as="geometry" />
        </mxCell>
        <mxCell id="-T0-8DbuxKeXqczAtrkJ-69" value="" style="endArrow=none;html=1;rounded=0;entryX=0;entryY=0;entryDx=0;entryDy=0;exitX=0.5;exitY=1;exitDx=0;exitDy=0;" edge="1" parent="1" source="-T0-8DbuxKeXqczAtrkJ-66" target="-T0-8DbuxKeXqczAtrkJ-65">
          <mxGeometry width="50" height="50" relative="1" as="geometry">
            <mxPoint x="-475" y="1370" as="sourcePoint" />
            <mxPoint x="-425" y="1320" as="targetPoint" />
          </mxGeometry>
        </mxCell>
        <mxCell id="-T0-8DbuxKeXqczAtrkJ-70" value="" style="endArrow=none;html=1;rounded=0;entryX=1;entryY=0.5;entryDx=0;entryDy=0;exitX=0;exitY=0.5;exitDx=0;exitDy=0;" edge="1" parent="1" source="-T0-8DbuxKeXqczAtrkJ-67" target="-T0-8DbuxKeXqczAtrkJ-65">
          <mxGeometry width="50" height="50" relative="1" as="geometry">
            <mxPoint x="-475" y="1370" as="sourcePoint" />
            <mxPoint x="-425" y="1320" as="targetPoint" />
          </mxGeometry>
        </mxCell>
        <mxCell id="-T0-8DbuxKeXqczAtrkJ-71" value="" style="endArrow=none;html=1;rounded=0;exitX=0;exitY=0.5;exitDx=0;exitDy=0;entryX=1;entryY=0.5;entryDx=0;entryDy=0;" edge="1" parent="1" source="-T0-8DbuxKeXqczAtrkJ-65" target="-T0-8DbuxKeXqczAtrkJ-68">
          <mxGeometry width="50" height="50" relative="1" as="geometry">
            <mxPoint x="-475" y="1370" as="sourcePoint" />
            <mxPoint x="-425" y="1320" as="targetPoint" />
          </mxGeometry>
        </mxCell>
        <mxCell id="-T0-8DbuxKeXqczAtrkJ-73" value="Purpose" style="ellipse;whiteSpace=wrap;html=1;" vertex="1" parent="1">
          <mxGeometry x="-695" y="1430" width="110" height="60" as="geometry" />
        </mxCell>
        <mxCell id="-T0-8DbuxKeXqczAtrkJ-74" value="" style="endArrow=none;html=1;rounded=0;entryX=0.5;entryY=1;entryDx=0;entryDy=0;exitX=0.75;exitY=0;exitDx=0;exitDy=0;" edge="1" parent="1" source="-T0-8DbuxKeXqczAtrkJ-65" target="-T0-8DbuxKeXqczAtrkJ-78">
          <mxGeometry width="50" height="50" relative="1" as="geometry">
            <mxPoint x="-155" y="1370" as="sourcePoint" />
            <mxPoint x="-355" y="1240.0000000000002" as="targetPoint" />
          </mxGeometry>
        </mxCell>
        <mxCell id="-T0-8DbuxKeXqczAtrkJ-75" value="" style="endArrow=none;html=1;rounded=0;entryX=0.25;entryY=1;entryDx=0;entryDy=0;exitX=0.5;exitY=0;exitDx=0;exitDy=0;" edge="1" parent="1" source="-T0-8DbuxKeXqczAtrkJ-73" target="-T0-8DbuxKeXqczAtrkJ-65">
          <mxGeometry width="50" height="50" relative="1" as="geometry">
            <mxPoint x="-155" y="1370" as="sourcePoint" />
            <mxPoint x="-105" y="1320" as="targetPoint" />
          </mxGeometry>
        </mxCell>
        <mxCell id="-T0-8DbuxKeXqczAtrkJ-76" value="Quantity" style="ellipse;whiteSpace=wrap;html=1;" vertex="1" parent="1">
          <mxGeometry x="-515" y="1480" width="110" height="60" as="geometry" />
        </mxCell>
        <mxCell id="-T0-8DbuxKeXqczAtrkJ-77" value="" style="endArrow=none;html=1;rounded=0;entryX=0;entryY=0;entryDx=0;entryDy=0;exitX=0.75;exitY=1;exitDx=0;exitDy=0;" edge="1" parent="1" source="-T0-8DbuxKeXqczAtrkJ-65" target="-T0-8DbuxKeXqczAtrkJ-76">
          <mxGeometry width="50" height="50" relative="1" as="geometry">
            <mxPoint x="-435" y="1500" as="sourcePoint" />
            <mxPoint x="-385" y="1450" as="targetPoint" />
          </mxGeometry>
        </mxCell>
        <mxCell id="-T0-8DbuxKeXqczAtrkJ-78" value="TotalPrice&amp;nbsp;" style="ellipse;whiteSpace=wrap;html=1;align=center;dashed=1;" vertex="1" parent="1">
          <mxGeometry x="-315" y="1180" width="100" height="40" as="geometry" />
        </mxCell>
        <mxCell id="-T0-8DbuxKeXqczAtrkJ-103" style="edgeStyle=orthogonalEdgeStyle;rounded=0;orthogonalLoop=1;jettySize=auto;html=1;exitX=0.5;exitY=1;exitDx=0;exitDy=0;entryX=0.5;entryY=0;entryDx=0;entryDy=0;" edge="1" parent="1" source="-T0-8DbuxKeXqczAtrkJ-79" target="-T0-8DbuxKeXqczAtrkJ-102">
          <mxGeometry relative="1" as="geometry" />
        </mxCell>
        <mxCell id="-T0-8DbuxKeXqczAtrkJ-79" value="&lt;font style=&quot;font-size: 24px;&quot;&gt;Payments&lt;/font&gt;" style="rounded=0;whiteSpace=wrap;html=1;" vertex="1" parent="1">
          <mxGeometry x="-500" y="630" width="120" height="50" as="geometry" />
        </mxCell>
        <mxCell id="-T0-8DbuxKeXqczAtrkJ-80" value="&lt;u&gt;BillNumber&lt;/u&gt;" style="ellipse;whiteSpace=wrap;html=1;" vertex="1" parent="1">
          <mxGeometry x="-730" y="630" width="100" height="60" as="geometry" />
        </mxCell>
        <mxCell id="-T0-8DbuxKeXqczAtrkJ-81" value="Category" style="ellipse;whiteSpace=wrap;html=1;" vertex="1" parent="1">
          <mxGeometry x="-300" y="620" width="100" height="60" as="geometry" />
        </mxCell>
        <mxCell id="-T0-8DbuxKeXqczAtrkJ-82" value="CustomerID(FK)" style="ellipse;whiteSpace=wrap;html=1;" vertex="1" parent="1">
          <mxGeometry x="-680" y="520" width="100" height="60" as="geometry" />
        </mxCell>
        <mxCell id="-T0-8DbuxKeXqczAtrkJ-83" value="" style="endArrow=none;html=1;rounded=0;entryX=0;entryY=0.5;entryDx=0;entryDy=0;exitX=1;exitY=0.5;exitDx=0;exitDy=0;" edge="1" parent="1" source="-T0-8DbuxKeXqczAtrkJ-80" target="-T0-8DbuxKeXqczAtrkJ-79">
          <mxGeometry width="50" height="50" relative="1" as="geometry">
            <mxPoint x="-460" y="680" as="sourcePoint" />
            <mxPoint x="-410" y="630" as="targetPoint" />
          </mxGeometry>
        </mxCell>
        <mxCell id="-T0-8DbuxKeXqczAtrkJ-84" value="" style="endArrow=none;html=1;rounded=0;entryX=1;entryY=0.5;entryDx=0;entryDy=0;exitX=0;exitY=0.5;exitDx=0;exitDy=0;" edge="1" parent="1" source="-T0-8DbuxKeXqczAtrkJ-81" target="-T0-8DbuxKeXqczAtrkJ-79">
          <mxGeometry width="50" height="50" relative="1" as="geometry">
            <mxPoint x="-460" y="680" as="sourcePoint" />
            <mxPoint x="-410" y="630" as="targetPoint" />
          </mxGeometry>
        </mxCell>
        <mxCell id="-T0-8DbuxKeXqczAtrkJ-85" value="" style="endArrow=none;html=1;rounded=0;exitX=0;exitY=0;exitDx=0;exitDy=0;entryX=1;entryY=0.5;entryDx=0;entryDy=0;" edge="1" parent="1" source="-T0-8DbuxKeXqczAtrkJ-79" target="-T0-8DbuxKeXqczAtrkJ-82">
          <mxGeometry width="50" height="50" relative="1" as="geometry">
            <mxPoint x="-460" y="680" as="sourcePoint" />
            <mxPoint x="-410" y="630" as="targetPoint" />
          </mxGeometry>
        </mxCell>
        <mxCell id="-T0-8DbuxKeXqczAtrkJ-86" value="BuyerName" style="ellipse;whiteSpace=wrap;html=1;" vertex="1" parent="1">
          <mxGeometry x="-690" y="720" width="100" height="60" as="geometry" />
        </mxCell>
        <mxCell id="-T0-8DbuxKeXqczAtrkJ-87" value="Date" style="ellipse;whiteSpace=wrap;html=1;" vertex="1" parent="1">
          <mxGeometry x="-270" y="730" width="110" height="60" as="geometry" />
        </mxCell>
        <mxCell id="-T0-8DbuxKeXqczAtrkJ-88" value="" style="endArrow=none;html=1;rounded=0;entryX=1;entryY=0;entryDx=0;entryDy=0;exitX=0;exitY=1;exitDx=0;exitDy=0;" edge="1" parent="1" source="-T0-8DbuxKeXqczAtrkJ-79" target="-T0-8DbuxKeXqczAtrkJ-86">
          <mxGeometry width="50" height="50" relative="1" as="geometry">
            <mxPoint x="-140" y="680" as="sourcePoint" />
            <mxPoint x="-90" y="630" as="targetPoint" />
          </mxGeometry>
        </mxCell>
        <mxCell id="-T0-8DbuxKeXqczAtrkJ-89" value="" style="endArrow=none;html=1;rounded=0;entryX=0.75;entryY=1;entryDx=0;entryDy=0;exitX=0.5;exitY=0;exitDx=0;exitDy=0;" edge="1" parent="1" source="-T0-8DbuxKeXqczAtrkJ-87" target="-T0-8DbuxKeXqczAtrkJ-79">
          <mxGeometry width="50" height="50" relative="1" as="geometry">
            <mxPoint x="-140" y="680" as="sourcePoint" />
            <mxPoint x="-90" y="630" as="targetPoint" />
          </mxGeometry>
        </mxCell>
        <mxCell id="-T0-8DbuxKeXqczAtrkJ-90" value="CustomerTelephoneNumbers" style="rounded=1;arcSize=10;whiteSpace=wrap;html=1;align=center;" vertex="1" parent="1">
          <mxGeometry x="100" y="170" width="240" height="40" as="geometry" />
        </mxCell>
        <mxCell id="-T0-8DbuxKeXqczAtrkJ-91" value="CustomerID(FK)" style="ellipse;whiteSpace=wrap;html=1;align=center;" vertex="1" parent="1">
          <mxGeometry x="60" y="30" width="100" height="40" as="geometry" />
        </mxCell>
        <mxCell id="-T0-8DbuxKeXqczAtrkJ-92" value="" style="endArrow=none;html=1;rounded=0;exitX=0.5;exitY=1;exitDx=0;exitDy=0;entryX=0.343;entryY=0.025;entryDx=0;entryDy=0;entryPerimeter=0;" edge="1" parent="1" source="-T0-8DbuxKeXqczAtrkJ-91" target="-T0-8DbuxKeXqczAtrkJ-90">
          <mxGeometry relative="1" as="geometry">
            <mxPoint y="580" as="sourcePoint" />
            <mxPoint x="160" y="580" as="targetPoint" />
          </mxGeometry>
        </mxCell>
        <mxCell id="-T0-8DbuxKeXqczAtrkJ-93" value="TelephoneNumber" style="ellipse;whiteSpace=wrap;html=1;align=center;" vertex="1" parent="1">
          <mxGeometry x="250" y="20" width="100" height="40" as="geometry" />
        </mxCell>
        <mxCell id="-T0-8DbuxKeXqczAtrkJ-94" value="" style="endArrow=none;html=1;rounded=0;exitX=0.5;exitY=1;exitDx=0;exitDy=0;entryX=0.75;entryY=0;entryDx=0;entryDy=0;" edge="1" parent="1" source="-T0-8DbuxKeXqczAtrkJ-93" target="-T0-8DbuxKeXqczAtrkJ-90">
          <mxGeometry relative="1" as="geometry">
            <mxPoint y="580" as="sourcePoint" />
            <mxPoint x="160" y="580" as="targetPoint" />
          </mxGeometry>
        </mxCell>
        <mxCell id="-T0-8DbuxKeXqczAtrkJ-95" value="TelephoneNumber" style="ellipse;shape=doubleEllipse;margin=3;whiteSpace=wrap;html=1;align=center;" vertex="1" parent="1">
          <mxGeometry x="-610" y="280" width="140" height="40" as="geometry" />
        </mxCell>
        <mxCell id="-T0-8DbuxKeXqczAtrkJ-99" style="edgeStyle=orthogonalEdgeStyle;rounded=0;orthogonalLoop=1;jettySize=auto;html=1;exitX=0.5;exitY=1;exitDx=0;exitDy=0;entryX=0.5;entryY=0;entryDx=0;entryDy=0;" edge="1" parent="1" source="-T0-8DbuxKeXqczAtrkJ-97" target="-T0-8DbuxKeXqczAtrkJ-79">
          <mxGeometry relative="1" as="geometry" />
        </mxCell>
        <mxCell id="-T0-8DbuxKeXqczAtrkJ-97" value="&lt;font style=&quot;font-size: 14px;&quot;&gt;Making&lt;/font&gt;" style="shape=rhombus;perimeter=rhombusPerimeter;whiteSpace=wrap;html=1;align=center;" vertex="1" parent="1">
          <mxGeometry x="-500" y="390" width="145" height="70" as="geometry" />
        </mxCell>
        <mxCell id="-T0-8DbuxKeXqczAtrkJ-100" value="&lt;span style=&quot;font-size: 18px;&quot;&gt;M&lt;/span&gt;" style="text;html=1;align=center;verticalAlign=middle;resizable=0;points=[];autosize=1;strokeColor=none;fillColor=none;" vertex="1" parent="1">
          <mxGeometry x="-410" y="240" width="40" height="40" as="geometry" />
        </mxCell>
        <mxCell id="-T0-8DbuxKeXqczAtrkJ-101" value="&lt;span style=&quot;color: rgb(0, 0, 0); font-family: Helvetica; font-size: 18px; font-style: normal; font-variant-ligatures: normal; font-variant-caps: normal; font-weight: 400; letter-spacing: normal; orphans: 2; text-align: center; text-indent: 0px; text-transform: none; widows: 2; word-spacing: 0px; -webkit-text-stroke-width: 0px; white-space: nowrap; background-color: rgb(251, 251, 251); text-decoration-thickness: initial; text-decoration-style: initial; text-decoration-color: initial; display: inline !important; float: none;&quot;&gt;N&lt;/span&gt;" style="text;whiteSpace=wrap;html=1;" vertex="1" parent="1">
          <mxGeometry x="-435" y="590" width="50" height="50" as="geometry" />
        </mxCell>
        <mxCell id="-T0-8DbuxKeXqczAtrkJ-104" style="edgeStyle=orthogonalEdgeStyle;rounded=0;orthogonalLoop=1;jettySize=auto;html=1;exitX=0.5;exitY=1;exitDx=0;exitDy=0;entryX=0.5;entryY=0;entryDx=0;entryDy=0;" edge="1" parent="1" source="-T0-8DbuxKeXqczAtrkJ-102" target="-T0-8DbuxKeXqczAtrkJ-65">
          <mxGeometry relative="1" as="geometry" />
        </mxCell>
        <mxCell id="-T0-8DbuxKeXqczAtrkJ-102" value="&lt;font style=&quot;font-size: 18px;&quot;&gt;Paying&lt;/font&gt;" style="shape=rhombus;perimeter=rhombusPerimeter;whiteSpace=wrap;html=1;align=center;" vertex="1" parent="1">
          <mxGeometry x="-530" y="910" width="160" height="90" as="geometry" />
        </mxCell>
        <mxCell id="-T0-8DbuxKeXqczAtrkJ-105" value="&lt;span style=&quot;color: rgb(0, 0, 0); font-family: Helvetica; font-style: normal; font-variant-ligatures: normal; font-variant-caps: normal; font-weight: 400; letter-spacing: normal; orphans: 2; text-align: center; text-indent: 0px; text-transform: none; widows: 2; word-spacing: 0px; -webkit-text-stroke-width: 0px; white-space: nowrap; background-color: rgb(251, 251, 251); text-decoration-thickness: initial; text-decoration-style: initial; text-decoration-color: initial; float: none; display: inline !important;&quot;&gt;&lt;font style=&quot;font-size: 24px;&quot;&gt;1&lt;/font&gt;&lt;/span&gt;" style="text;whiteSpace=wrap;html=1;" vertex="1" parent="1">
          <mxGeometry x="-430" y="690" width="50" height="50" as="geometry" />
        </mxCell>
        <mxCell id="-T0-8DbuxKeXqczAtrkJ-106" value="&lt;font style=&quot;font-size: 18px;&quot;&gt;M&lt;/font&gt;" style="text;html=1;align=center;verticalAlign=middle;resizable=0;points=[];autosize=1;strokeColor=none;fillColor=none;" vertex="1" parent="1">
          <mxGeometry x="-450" y="1263" width="40" height="40" as="geometry" />
        </mxCell>
        <mxCell id="-T0-8DbuxKeXqczAtrkJ-111" style="edgeStyle=orthogonalEdgeStyle;rounded=0;orthogonalLoop=1;jettySize=auto;html=1;exitX=1;exitY=0.5;exitDx=0;exitDy=0;entryX=0;entryY=0.5;entryDx=0;entryDy=0;" edge="1" parent="1" source="-T0-8DbuxKeXqczAtrkJ-109" target="-T0-8DbuxKeXqczAtrkJ-90">
          <mxGeometry relative="1" as="geometry" />
        </mxCell>
        <mxCell id="-T0-8DbuxKeXqczAtrkJ-109" value="Can Have" style="shape=rhombus;perimeter=rhombusPerimeter;whiteSpace=wrap;html=1;align=center;" vertex="1" parent="1">
          <mxGeometry x="-170" y="150" width="150" height="60" as="geometry" />
        </mxCell>
        <mxCell id="-T0-8DbuxKeXqczAtrkJ-112" value="&lt;span style=&quot;font-size: 18px;&quot;&gt;M&lt;/span&gt;" style="text;html=1;align=center;verticalAlign=middle;resizable=0;points=[];autosize=1;strokeColor=none;fillColor=none;" vertex="1" parent="1">
          <mxGeometry x="-340" y="170" width="40" height="40" as="geometry" />
        </mxCell>
        <mxCell id="-T0-8DbuxKeXqczAtrkJ-113" value="&lt;span style=&quot;font-size: 18px;&quot;&gt;1&lt;/span&gt;" style="text;html=1;align=center;verticalAlign=middle;resizable=0;points=[];autosize=1;strokeColor=none;fillColor=none;" vertex="1" parent="1">
          <mxGeometry x="60" y="160" width="30" height="40" as="geometry" />
        </mxCell>
        <mxCell id="-T0-8DbuxKeXqczAtrkJ-116" style="edgeStyle=orthogonalEdgeStyle;rounded=0;orthogonalLoop=1;jettySize=auto;html=1;exitX=1;exitY=0.5;exitDx=0;exitDy=0;entryX=0;entryY=0.5;entryDx=0;entryDy=0;" edge="1" parent="1" source="-T0-8DbuxKeXqczAtrkJ-114" target="-T0-8DbuxKeXqczAtrkJ-27">
          <mxGeometry relative="1" as="geometry" />
        </mxCell>
        <mxCell id="-T0-8DbuxKeXqczAtrkJ-114" value="&lt;font style=&quot;font-size: 18px;&quot;&gt;Regidter&lt;/font&gt;" style="shape=rhombus;perimeter=rhombusPerimeter;whiteSpace=wrap;html=1;align=center;" vertex="1" parent="1">
          <mxGeometry x="-40" y="330" width="200" height="80" as="geometry" />
        </mxCell>
        <mxCell id="-T0-8DbuxKeXqczAtrkJ-117" value="&lt;span style=&quot;font-size: 18px;&quot;&gt;1&lt;/span&gt;" style="text;html=1;align=center;verticalAlign=middle;resizable=0;points=[];autosize=1;strokeColor=none;fillColor=none;" vertex="1" parent="1">
          <mxGeometry x="-335" y="330" width="30" height="40" as="geometry" />
        </mxCell>
        <mxCell id="-T0-8DbuxKeXqczAtrkJ-118" value="&lt;span style=&quot;font-size: 18px;&quot;&gt;1&lt;/span&gt;" style="text;html=1;align=center;verticalAlign=middle;resizable=0;points=[];autosize=1;strokeColor=none;fillColor=none;" vertex="1" parent="1">
          <mxGeometry x="365" y="410" width="30" height="40" as="geometry" />
        </mxCell>
        <mxCell id="-T0-8DbuxKeXqczAtrkJ-121" style="edgeStyle=orthogonalEdgeStyle;rounded=0;orthogonalLoop=1;jettySize=auto;html=1;exitX=0.5;exitY=1;exitDx=0;exitDy=0;entryX=0.5;entryY=0;entryDx=0;entryDy=0;" edge="1" parent="1" source="-T0-8DbuxKeXqczAtrkJ-119" target="-T0-8DbuxKeXqczAtrkJ-38">
          <mxGeometry relative="1" as="geometry" />
        </mxCell>
        <mxCell id="-T0-8DbuxKeXqczAtrkJ-119" value="&lt;font style=&quot;font-size: 18px;&quot;&gt;Working&lt;/font&gt;" style="shape=rhombus;perimeter=rhombusPerimeter;whiteSpace=wrap;html=1;align=center;" vertex="1" parent="1">
          <mxGeometry x="420" y="600" width="120" height="60" as="geometry" />
        </mxCell>
        <mxCell id="-T0-8DbuxKeXqczAtrkJ-122" value="&lt;font style=&quot;font-size: 18px;&quot;&gt;M&lt;/font&gt;" style="text;html=1;align=center;verticalAlign=middle;resizable=0;points=[];autosize=1;strokeColor=none;fillColor=none;" vertex="1" parent="1">
          <mxGeometry x="449" y="490" width="40" height="40" as="geometry" />
        </mxCell>
        <mxCell id="-T0-8DbuxKeXqczAtrkJ-123" value="&lt;span style=&quot;color: rgb(0, 0, 0); font-family: Helvetica; font-size: 18px; font-style: normal; font-variant-ligatures: normal; font-variant-caps: normal; font-weight: 400; letter-spacing: normal; orphans: 2; text-align: center; text-indent: 0px; text-transform: none; widows: 2; word-spacing: 0px; -webkit-text-stroke-width: 0px; white-space: nowrap; background-color: rgb(251, 251, 251); text-decoration-thickness: initial; text-decoration-style: initial; text-decoration-color: initial; display: inline !important; float: none;&quot;&gt;N&lt;/span&gt;" style="text;whiteSpace=wrap;html=1;" vertex="1" parent="1">
          <mxGeometry x="480" y="790" width="50" height="50" as="geometry" />
        </mxCell>
        <mxCell id="-T0-8DbuxKeXqczAtrkJ-128" style="edgeStyle=orthogonalEdgeStyle;rounded=0;orthogonalLoop=1;jettySize=auto;html=1;exitX=0.5;exitY=1;exitDx=0;exitDy=0;entryX=0.5;entryY=0;entryDx=0;entryDy=0;" edge="1" parent="1" source="-T0-8DbuxKeXqczAtrkJ-125" target="-T0-8DbuxKeXqczAtrkJ-15">
          <mxGeometry relative="1" as="geometry" />
        </mxCell>
        <mxCell id="-T0-8DbuxKeXqczAtrkJ-125" value="&lt;font style=&quot;font-size: 18px;&quot;&gt;Supplying&lt;/font&gt;" style="shape=rhombus;perimeter=rhombusPerimeter;whiteSpace=wrap;html=1;align=center;" vertex="1" parent="1">
          <mxGeometry x="365" y="1050" width="165" height="80" as="geometry" />
        </mxCell>
        <mxCell id="-T0-8DbuxKeXqczAtrkJ-130" style="edgeStyle=orthogonalEdgeStyle;rounded=0;orthogonalLoop=1;jettySize=auto;html=1;exitX=1;exitY=0.5;exitDx=0;exitDy=0;entryX=0;entryY=0.75;entryDx=0;entryDy=0;" edge="1" parent="1" source="-T0-8DbuxKeXqczAtrkJ-126" target="-T0-8DbuxKeXqczAtrkJ-15">
          <mxGeometry relative="1" as="geometry" />
        </mxCell>
        <mxCell id="-T0-8DbuxKeXqczAtrkJ-126" value="&lt;font style=&quot;font-size: 18px;&quot;&gt;Store keep&lt;/font&gt;" style="shape=rhombus;perimeter=rhombusPerimeter;whiteSpace=wrap;html=1;align=center;" vertex="1" parent="1">
          <mxGeometry x="-75" y="1320" width="165" height="80" as="geometry" />
        </mxCell>
        <mxCell id="-T0-8DbuxKeXqczAtrkJ-131" value="&lt;span style=&quot;color: rgb(0, 0, 0); font-family: Helvetica; font-style: normal; font-variant-ligatures: normal; font-variant-caps: normal; font-weight: 400; letter-spacing: normal; orphans: 2; text-align: center; text-indent: 0px; text-transform: none; widows: 2; word-spacing: 0px; -webkit-text-stroke-width: 0px; white-space: nowrap; background-color: rgb(251, 251, 251); text-decoration-thickness: initial; text-decoration-style: initial; text-decoration-color: initial; float: none; display: inline !important;&quot;&gt;&lt;font style=&quot;font-size: 24px;&quot;&gt;1&lt;/font&gt;&lt;/span&gt;" style="text;whiteSpace=wrap;html=1;" vertex="1" parent="1">
          <mxGeometry x="-380" y="1300" width="50" height="50" as="geometry" />
        </mxCell>
        <mxCell id="-T0-8DbuxKeXqczAtrkJ-132" value="&lt;span style=&quot;color: rgb(0, 0, 0); font-family: Helvetica; font-style: normal; font-variant-ligatures: normal; font-variant-caps: normal; font-weight: 400; letter-spacing: normal; orphans: 2; text-align: center; text-indent: 0px; text-transform: none; widows: 2; word-spacing: 0px; -webkit-text-stroke-width: 0px; white-space: nowrap; background-color: rgb(251, 251, 251); text-decoration-thickness: initial; text-decoration-style: initial; text-decoration-color: initial; float: none; display: inline !important;&quot;&gt;&lt;font style=&quot;font-size: 24px;&quot;&gt;1&lt;/font&gt;&lt;/span&gt;" style="text;whiteSpace=wrap;html=1;" vertex="1" parent="1">
          <mxGeometry x="290" y="1320" width="50" height="50" as="geometry" />
        </mxCell>
        <mxCell id="-T0-8DbuxKeXqczAtrkJ-133" value="&lt;font style=&quot;font-size: 18px;&quot;&gt;M&lt;/font&gt;" style="text;html=1;align=center;verticalAlign=middle;resizable=0;points=[];autosize=1;strokeColor=none;fillColor=none;" vertex="1" parent="1">
          <mxGeometry x="478" y="900" width="40" height="40" as="geometry" />
        </mxCell>
        <mxCell id="-T0-8DbuxKeXqczAtrkJ-134" value="&lt;span style=&quot;color: rgb(0, 0, 0); font-family: Helvetica; font-style: normal; font-variant-ligatures: normal; font-variant-caps: normal; font-weight: 400; letter-spacing: normal; orphans: 2; text-align: center; text-indent: 0px; text-transform: none; widows: 2; word-spacing: 0px; -webkit-text-stroke-width: 0px; white-space: nowrap; background-color: rgb(251, 251, 251); text-decoration-thickness: initial; text-decoration-style: initial; text-decoration-color: initial; float: none; display: inline !important;&quot;&gt;&lt;font style=&quot;font-size: 24px;&quot;&gt;1&lt;/font&gt;&lt;/span&gt;" style="text;whiteSpace=wrap;html=1;" vertex="1" parent="1">
          <mxGeometry x="420" y="1280" width="50" height="50" as="geometry" />
        </mxCell>
      </root>
    </mxGraphModel>
  </diagram>
</mxfile>
